HIERARCHY
ROOT root
{
	OFFSET	0	13.1	24.9
	CHANNELS 6  Xposition Yposition Zposition Xrotation Yrotation Zrotation
	JOINT spine_1
	{
		OFFSET	0	9.99999	0
		CHANNELS 3  Xrotation Yrotation Zrotation
		JOINT spine_2
		{
			OFFSET	0	112	-10
			CHANNELS 3  Xrotation Yrotation Zrotation
			JOINT spine_3
			{
				OFFSET	0	206.5	19.3
				CHANNELS 3  Xrotation Yrotation Zrotation
				JOINT spine_4
				{
					OFFSET	0	110.4	14.6
					CHANNELS 3  Xrotation Yrotation Zrotation
					JOINT neck_1
					{
						OFFSET	0	71.8	-50.3
						CHANNELS 3  Xrotation Yrotation Zrotation
						JOINT neck_2
						{
							OFFSET	0	86.2	-25.8
							CHANNELS 3  Xrotation Yrotation Zrotation
							JOINT head_ee
							{
								OFFSET	0	179.8	-8.7
								CHANNELS 3  Xrotation Yrotation Zrotation
								End Site
								{
									OFFSET	1	0	0
								}
							}
						}
					}
					JOINT left_clavicle
					{
						OFFSET	-43.2	22.4	-70.8
						CHANNELS 3  Xrotation Yrotation Zrotation
						JOINT left_shoulder
						{
							OFFSET	-93.9	-5.79999	48.7
							CHANNELS 3  Xrotation Yrotation Zrotation
							JOINT left_elbow
							{
								OFFSET	-291.4	-30.8	15.2
								CHANNELS 3  Xrotation Yrotation Zrotation
								JOINT left_lowarm_twist
								{
									OFFSET	-110.7	-3.89999	13.6
									CHANNELS 3  Xrotation Yrotation Zrotation
									JOINT left_hand
									{
										OFFSET	-110.7	-3.89999	13.6
										CHANNELS 3  Xrotation Yrotation Zrotation
										JOINT left_ee
										{
											OFFSET	-80.8	-5.10001	12.1
											CHANNELS 3  Xrotation Yrotation Zrotation
											End Site
											{
												OFFSET	1	0	0
											}
										}
									}
								}
							}
						}
					}
					JOINT right_clavicle
					{
						OFFSET	43.2	22.4	-70.8
						CHANNELS 3  Xrotation Yrotation Zrotation
						JOINT right_shoulder
						{
							OFFSET	93.9	-5.79999	48.7
							CHANNELS 3  Xrotation Yrotation Zrotation
							JOINT right_elbow
							{
								OFFSET	291.4	-30.8	15.2
								CHANNELS 3  Xrotation Yrotation Zrotation
								JOINT right_lowarm_twist
								{
									OFFSET	110.7	-3.89999	13.6
									CHANNELS 3  Xrotation Yrotation Zrotation
									JOINT right_hand
									{
										OFFSET	110.7	-3.89999	13.6
										CHANNELS 3  Xrotation Yrotation Zrotation
										JOINT right_ee
										{
											OFFSET	80.8	-5.10001	12.1
											CHANNELS 3  Xrotation Yrotation Zrotation
											End Site
											{
												OFFSET	1	0	0
											}
										}
									}
								}
							}
						}
					}
				}
			}
		}
	}
	JOINT left_hip
	{
		OFFSET	-82.8	-127.5	0.300001
		CHANNELS 3  Xrotation Yrotation Zrotation
		JOINT left_knee
		{
			OFFSET	-28.2	-396.7	2.2
			CHANNELS 3  Xrotation Yrotation Zrotation
			JOINT left_ankle
			{
				OFFSET	-11.7	-411.3	35.4
				CHANNELS 3  Xrotation Yrotation Zrotation
				JOINT left_toes
				{
					OFFSET	0	-60	-88.6
					CHANNELS 3  Xrotation Yrotation Zrotation
					JOINT left_foot_ee
					{
						OFFSET	-22.5	-16.5	-42.2
						CHANNELS 3  Xrotation Yrotation Zrotation
						End Site
						{
							OFFSET	1	0	0
						}
					}
				}
			}
		}
	}
	JOINT right_hip
	{
		OFFSET	82.8	-127.5	0.300001
		CHANNELS 3  Xrotation Yrotation Zrotation
		JOINT right_knee
		{
			OFFSET	28.2	-396.7	2.2
			CHANNELS 3  Xrotation Yrotation Zrotation
			JOINT right_ankle
			{
				OFFSET	11.7	-411.3	35.4
				CHANNELS 3  Xrotation Yrotation Zrotation
				JOINT right_toes
				{
					OFFSET	0	-60	-88.6
					CHANNELS 3  Xrotation Yrotation Zrotation
					JOINT right_foot_ee
					{
						OFFSET	22.5	-16.5	-42.2
						CHANNELS 3  Xrotation Yrotation Zrotation
						End Site
						{
							OFFSET	1	0	0
						}
					}
				}
			}
		}
	}
}
MOTION
Frames: 13
Frame Time: 0.02
3574.42 741.953 -1474.73 -130.539417743 82.8817452902 134.091545351 0.968028 0.364202 -1.49993 0.969163 0.458898 -1.47372 0.957323 0.736004 -1.35676 0.95512 0.512517 -1.45595 -0.0974912 4.64053 -4.52311 0.098608 11.9631 -4.38424 -0.0 0.0 -0.0 1.8026 21.4216 5.06545 -10.19 -54.6024 59.0295 1.56361 -37.7575 0.534725 -85.125 -8.46755 5.18149 -0.0300336 13.2692 5.26643 -0.0 0.0 -0.0 2.06388 6.29871 -3.43027 -17.9803 12.4182 -66.0292 0.961187 25.4607 -0.217153 12.0544 -0.266315 1.51398 -0.418716 -1.58579 2.11694 0.0 0.0 0.0 7.85768 44.6849 -2.81236 -2.79212 0.10485 0.41563 14.1627 -10.6813 -2.08748 -15.7771 0.0 0.0 -0.0 0.0 -0.0 11.87 33.5688 -2.25526 -14.4325 -0.320403 -2.18583 10.0439 -8.60801 1.42755 0.0856916 -0.0 -0.0 0.0 0.0 0.0 
3574.42 741.953 -1474.73 -129.723652915 82.9671072499 133.269520868 0.968028 0.364202 -1.49993 0.969163 0.458898 -1.47372 0.957323 0.736004 -1.35676 0.95512 0.512517 -1.45595 -0.0974912 4.64053 -4.52311 0.098608 11.9631 -4.38424 -0.0 0.0 -0.0 1.8026 21.4216 5.06545 -10.19 -54.6024 59.0295 1.56361 -37.7575 0.534725 -85.125 -8.46755 5.18149 -0.0300336 13.2692 5.26643 -0.0 0.0 -0.0 2.06388 6.29871 -3.43027 -17.9803 12.4182 -66.0292 0.961187 25.4607 -0.217153 12.0544 -0.266315 1.51398 -0.418716 -1.58579 2.11694 0.0 0.0 0.0 7.85768 44.6849 -2.81236 -2.79212 0.10485 0.41563 14.1627 -10.6813 -2.08748 -15.7771 0.0 0.0 -0.0 0.0 -0.0 11.87 33.5688 -2.25526 -14.4325 -0.320403 -2.18583 10.0439 -8.60801 1.42755 0.0856916 -0.0 -0.0 0.0 0.0 0.0 
3574.42 741.953 -1474.73 -129.0335226 83.0366403023 132.574210841 0.968028 0.364202 -1.49993 0.969163 0.458898 -1.47372 0.957323 0.736004 -1.35676 0.95512 0.512517 -1.45595 -0.0974912 4.64053 -4.52311 0.098608 11.9631 -4.38424 -0.0 0.0 -0.0 1.8026 21.4216 5.06545 -10.19 -54.6024 59.0295 1.56361 -37.7575 0.534725 -85.125 -8.46755 5.18149 -0.0300336 13.2692 5.26643 -0.0 0.0 -0.0 2.06388 6.29871 -3.43027 -17.9803 12.4182 -66.0292 0.961187 25.4607 -0.217153 12.0544 -0.266315 1.51398 -0.418716 -1.58579 2.11694 0.0 0.0 0.0 7.85768 44.6849 -2.81236 -2.79212 0.10485 0.41563 14.1627 -10.6813 -2.08748 -15.7771 0.0 0.0 -0.0 0.0 -0.0 11.87 33.5688 -2.25526 -14.4325 -0.320403 -2.18583 10.0439 -8.60801 1.42755 0.0856916 -0.0 -0.0 0.0 0.0 0.0 
3574.42 741.953 -1474.73 -123.570834213 83.5103067472 127.073764412 0.968028 0.364202 -1.49993 0.969163 0.458898 -1.47372 0.957323 0.736004 -1.35676 0.95512 0.512517 -1.45595 -0.0974912 4.64053 -4.52311 0.098608 11.9631 -4.38424 -0.0 0.0 -0.0 1.8026 21.4216 5.06545 -10.19 -54.6024 59.0295 1.56361 -37.7575 0.534725 -85.125 -8.46755 5.18149 -0.0300336 13.2692 5.26643 -0.0 0.0 -0.0 2.06388 6.29871 -3.43027 -17.9803 12.4182 -66.0292 0.961187 25.4607 -0.217153 12.0544 -0.266315 1.51398 -0.418716 -1.58579 2.11694 0.0 0.0 0.0 7.85768 44.6849 -2.81236 -2.79212 0.10485 0.41563 14.1627 -10.6813 -2.08748 -15.7771 0.0 0.0 -0.0 0.0 -0.0 11.87 33.5688 -2.25526 -14.4325 -0.320403 -2.18583 10.0439 -8.60801 1.42755 0.0856916 -0.0 -0.0 0.0 0.0 0.0 
3574.42 741.953 -1474.73 -119.134204821 83.8107643812 122.609881574 0.968028 0.364202 -1.49993 0.969163 0.458898 -1.47372 0.957323 0.736004 -1.35676 0.95512 0.512517 -1.45595 -0.0974912 4.64053 -4.52311 0.098608 11.9631 -4.38424 -0.0 0.0 -0.0 1.8026 21.4216 5.06545 -10.19 -54.6024 59.0295 1.56361 -37.7575 0.534725 -85.125 -8.46755 5.18149 -0.0300336 13.2692 5.26643 -0.0 0.0 -0.0 2.06388 6.29871 -3.43027 -17.9803 12.4182 -66.0292 0.961187 25.4607 -0.217153 12.0544 -0.266315 1.51398 -0.418716 -1.58579 2.11694 0.0 0.0 0.0 7.85768 44.6849 -2.81236 -2.79212 0.10485 0.41563 14.1627 -10.6813 -2.08748 -15.7771 0.0 0.0 -0.0 0.0 -0.0 11.87 33.5688 -2.25526 -14.4325 -0.320403 -2.18583 10.0439 -8.60801 1.42755 0.0856916 -0.0 -0.0 0.0 0.0 0.0 
3574.42 741.953 -1474.73 -112.182052104 84.1629743758 115.619393921 0.968028 0.364202 -1.49993 0.969163 0.458898 -1.47372 0.957323 0.736004 -1.35676 0.95512 0.512517 -1.45595 -0.0974912 4.64053 -4.52311 0.098608 11.9631 -4.38424 -0.0 0.0 -0.0 1.8026 21.4216 5.06545 -10.19 -54.6024 59.0295 1.56361 -37.7575 0.534725 -85.125 -8.46755 5.18149 -0.0300336 13.2692 5.26643 -0.0 0.0 -0.0 2.06388 6.29871 -3.43027 -17.9803 12.4182 -66.0292 0.961187 25.4607 -0.217153 12.0544 -0.266315 1.51398 -0.418716 -1.58579 2.11694 0.0 0.0 0.0 7.85768 44.6849 -2.81236 -2.79212 0.10485 0.41563 14.1627 -10.6813 -2.08748 -15.7771 0.0 0.0 -0.0 0.0 -0.0 11.87 33.5688 -2.25526 -14.4325 -0.320403 -2.18583 10.0439 -8.60801 1.42755 0.0856916 -0.0 -0.0 0.0 0.0 0.0 
3574.42 741.953 -1474.73 -102.500080362 84.464711108 105.889809594 0.968028 0.364202 -1.49993 0.969163 0.458898 -1.47372 0.957323 0.736004 -1.35676 0.95512 0.512517 -1.45595 -0.0974912 4.64053 -4.52311 0.098608 11.9631 -4.38424 -0.0 0.0 -0.0 1.8026 21.4216 5.06545 -10.19 -54.6024 59.0295 1.56361 -37.7575 0.534725 -85.125 -8.46755 5.18149 -0.0300336 13.2692 5.26643 -0.0 0.0 -0.0 2.06388 6.29871 -3.43027 -17.9803 12.4182 -66.0292 0.961187 25.4607 -0.217153 12.0544 -0.266315 1.51398 -0.418716 -1.58579 2.11694 0.0 0.0 0.0 7.85768 44.6849 -2.81236 -2.79212 0.10485 0.41563 14.1627 -10.6813 -2.08748 -15.7771 0.0 0.0 -0.0 0.0 -0.0 11.87 33.5688 -2.25526 -14.4325 -0.320403 -2.18583 10.0439 -8.60801 1.42755 0.0856916 -0.0 -0.0 0.0 0.0 0.0 
3574.42 741.953 -1474.73 -85.712955578 84.5811095456 89.0268035839 0.968028 0.364202 -1.49993 0.969163 0.458898 -1.47372 0.957323 0.736004 -1.35676 0.95512 0.512517 -1.45595 -0.0974912 4.64053 -4.52311 0.098608 11.9631 -4.38424 -0.0 0.0 -0.0 1.8026 21.4216 5.06545 -10.19 -54.6024 59.0295 1.56361 -37.7575 0.534725 -85.125 -8.46755 5.18149 -0.0300336 13.2692 5.26643 -0.0 0.0 -0.0 2.06388 6.29871 -3.43027 -17.9803 12.4182 -66.0292 0.961187 25.4607 -0.217153 12.0544 -0.266315 1.51398 -0.418716 -1.58579 2.11694 0.0 0.0 0.0 7.85768 44.6849 -2.81236 -2.79212 0.10485 0.41563 14.1627 -10.6813 -2.08748 -15.7771 0.0 0.0 -0.0 0.0 -0.0 11.87 33.5688 -2.25526 -14.4325 -0.320403 -2.18583 10.0439 -8.60801 1.42755 0.0856916 -0.0 -0.0 0.0 0.0 0.0 
3557.45954268 739.465 -1488.75270774 -123.478572647 84.6644393805 126.385081332 0.983766 0.194327 -1.41106 0.984829 0.283714 -1.39584 0.977972 0.548515 -1.31455 0.975716 0.334043 -1.38466 -0.494336 2.5754 -4.55357 -0.366241 8.30025 -4.59265 -0.0 0.0 -0.0 0.672842 23.6257 3.64957 -10.2298 -53.3228 59.5983 1.73417 -40.6609 0.64258 -84.0415 -8.3319 5.20712 -0.665674 13.5201 1.37922 -0.0 0.0 -0.0 2.37932 11.5336 -3.6035 -17.1491 10.9564 -67.7665 0.856313 22.9861 -0.174114 12.0035 -0.265865 1.5075 -0.57563 -7.69074 0.533069 0.0 0.0 0.0 7.68388 44.6662 -3.45126 -3.70634 0.134759 0.552747 9.88198 -6.73371 -1.45221 -15.7571 0.0 0.0 -0.0 0.0 -0.0 8.12521 24.6269 -2.479 -16.0926 -0.3217 -2.44053 10.6521 -15.45 1.52404 0.445373 -0.0 -0.0 0.0 0.0 0.0 
3540.63301263 737.766 -1508.1661486 -166.25543586 79.9738944868 168.279891954 0.584784 0.0741577 -0.911346 0.585236 0.131996 -0.904781 0.583234 0.310502 -0.860027 0.582243 0.170785 -0.898268 -1.68611 -0.0250269 -4.57377 -1.61187 3.60218 -4.83352 -0.0 0.0 -0.0 0.0749779 22.6832 2.73338 -12.5741 -52.2329 58.0756 1.60206 -38.4331 0.558446 -83.139 -8.21852 5.22649 -1.11155 15.6245 -0.478248 -0.0 0.0 -0.0 2.83187 16.3056 -4.1167 -16.0011 10.6358 -69.7237 0.920444 24.5108 -0.199943 11.8353 -0.264335 1.48606 -0.617214 -10.1947 -0.269812 0.0 0.0 0.0 9.8515 41.1163 -5.22906 -5.09976 0.176124 0.762588 10.5374 -4.85488 -1.53247 -17.6633 0.0 0.0 -0.0 0.0 -0.0 3.75028 18.1446 -1.29829 -14.4672 -0.320506 -2.19115 13.7996 -18.7902 1.97157 0.873835 -0.0 -0.0 0.0 0.0 0.0 
3543.10380641 737.766 -1510.49076856 -157.209511685 83.87000963 159.148950379 0.584784 0.0741577 -0.911346 0.585236 0.131996 -0.904781 0.583234 0.310502 -0.860027 0.582243 0.170785 -0.898268 -1.68611 -0.0250269 -4.57377 -1.61187 3.60218 -4.83352 -0.0 0.0 -0.0 0.0749779 22.6832 2.73338 -12.5741 -52.2329 58.0756 1.60206 -38.4331 0.558446 -83.139 -8.21852 5.22649 -1.11155 15.6245 -0.478248 -0.0 0.0 -0.0 2.83187 16.3056 -4.1167 -16.0011 10.6358 -69.7237 0.920444 24.5108 -0.199943 11.8353 -0.264335 1.48606 -0.617214 -10.1947 -0.269812 0.0 0.0 0.0 9.8515 41.1163 -5.22906 -5.09976 0.176124 0.762588 10.5374 -4.85488 -1.53247 -17.6633 0.0 0.0 -0.0 0.0 -0.0 3.75028 18.1446 -1.29829 -14.4672 -0.320506 -2.19115 13.7996 -18.7902 1.97157 0.873835 -0.0 -0.0 0.0 0.0 0.0 
3545.97333539 737.766 -1512.81311728 -116.908250266 87.3412965096 118.755504942 0.584784 0.0741577 -0.911346 0.585236 0.131996 -0.904781 0.583234 0.310502 -0.860027 0.582243 0.170785 -0.898268 -1.68611 -0.0250269 -4.57377 -1.61187 3.60218 -4.83352 -0.0 0.0 -0.0 0.0749779 22.6832 2.73338 -12.5741 -52.2329 58.0756 1.60206 -38.4331 0.558446 -83.139 -8.21852 5.22649 -1.11155 15.6245 -0.478248 -0.0 0.0 -0.0 2.83187 16.3056 -4.1167 -16.0011 10.6358 -69.7237 0.920444 24.5108 -0.199943 11.8353 -0.264335 1.48606 -0.617214 -10.1947 -0.269812 0.0 0.0 0.0 9.8515 41.1163 -5.22906 -5.09976 0.176124 0.762588 10.5374 -4.85488 -1.53247 -17.6633 0.0 0.0 -0.0 0.0 -0.0 3.75028 18.1446 -1.29829 -14.4672 -0.320506 -2.19115 13.7996 -18.7902 1.97157 0.873835 -0.0 -0.0 0.0 0.0 0.0 
3544.6693186 741.116 -1521.59499172 -106.865180031 87.6365854941 108.253856358 0.497502 0.123335 -0.66057 0.497729 0.165118 -0.651384 0.495876 0.293127 -0.604684 0.495418 0.193952 -0.643388 -2.25599 -1.22839 -5.24676 -2.17265 1.9252 -5.67073 -0.0 0.0 -0.0 0.24138 21.7794 2.8716 -13.2239 -52.0429 57.6046 1.46751 -36.0134 0.477034 -83.0353 -8.20547 5.2286 -1.22839 16.9809 -0.590931 -0.0 0.0 -0.0 3.03645 18.0285 -4.39178 -14.1681 11.0441 -69.3719 0.986386 26.0409 -0.228101 11.7291 -0.263337 1.47254 -0.657289 -10.1111 0.0222593 0.0 0.0 0.0 10.2858 38.4438 -4.84376 -5.33587 0.182626 0.79824 12.3916 -4.77848 -1.78863 -18.9062 0.0 0.0 -0.0 0.0 -0.0 2.72941 16.1902 -1.83262 -14.2343 -0.319755 -2.15542 15.5135 -18.487 2.20005 0.961721 -0.0 -0.0 0.0 0.0 0.0 
